Coordinates
version=1
nRows=27
nColumns=12
inDegrees=yes

Units are S.I. units (second, meters, Newtons, ...)
Angles are in degrees

endheader
time	SC_y	SC_z	SC_x	AC_y	AC_z	AC_x	GH_y	GH_z	GH_yy	EL_x	PS_y
       0.0              -27.08          19.67          10.86          38.75           1.88          17.02          9.206          68.87          44.88          97.28          9.855
   0.03082              -27.08          19.67          10.86          38.75           1.88          17.01          9.186          68.86          44.89          97.28          9.858
   0.06164              -27.09          19.67          10.87          38.75          1.879          17.01          9.164          68.86           44.9          97.28           9.86
   0.09246              -27.09          19.67          10.88          38.75          1.879          17.01           9.14          68.85          44.91          97.28          9.863
    0.1233              -27.09          19.66          10.88          38.75          1.878          17.01          9.115          68.84          44.93          97.28          9.866
    0.1541               -27.1          19.66          10.89          38.75          1.878          17.01          9.088          68.84          44.94          97.29          9.869
    0.1849               -27.1          19.66           10.9          38.75          1.877          17.01           9.06          68.83          44.96          97.29          9.872
    0.2157              -27.11          19.65          10.91          38.76          1.877          17.01          9.029          68.82          44.97          97.29          9.876
    0.2466              -27.11          19.65          10.91          38.76          1.876           17.0          8.997          68.81          44.99           97.3           9.88
    0.2774              -27.11          19.65          10.92          38.76          1.875           17.0          8.962           68.8          45.01           97.3          9.884
    0.3082              -27.12          19.64          10.93          38.76          1.875           17.0          8.924          68.79          45.03           97.3          9.888
     0.339              -27.13          19.64          10.94          38.76          1.874           17.0          8.884          68.78          45.05          97.31          9.893
    0.3698              -27.13          19.63          10.96          38.76          1.873          16.99           8.84          68.77          45.07          97.31          9.898
    0.4007              -27.14          19.63          10.97          38.77          1.872          16.99          8.793          68.75           45.1          97.31          9.903
    0.4315              -27.14          19.62          10.98          38.77          1.871          16.99          8.742          68.74          45.12          97.32          9.909
    0.4623              -27.15          19.62           11.0          38.77           1.87          16.99          8.687          68.72          45.15          97.32          9.916
    0.4931              -27.16          19.61          11.01          38.77          1.869          16.98          8.627          68.71          45.18          97.33          9.923
     0.524              -27.17           19.6          11.03          38.78          1.867          16.98          8.561          68.69          45.22          97.34           9.93
    0.5548              -27.18           19.6          11.05          38.78          1.866          16.97           8.49          68.67          45.26          97.34          9.939
    0.5856              -27.19          19.59          11.07          38.78          1.865          16.97          8.411          68.64           45.3          97.35          9.948
    0.6164               -27.2          19.58          11.09          38.79          1.863          16.97          8.326          68.62          45.34          97.36          9.958
    0.6472              -27.22          19.57          11.12          38.79          1.861          16.96          8.231          68.59          45.39          97.37          9.969
    0.6781              -27.23          19.56          11.15           38.8          1.859          16.95          8.127          68.56          45.45          97.38          9.981
    0.7089              -27.25          19.55          11.18           38.8          1.857          16.95          8.011          68.53          45.51          97.39          9.994
    0.7397              -27.26          19.53          11.21          38.81          1.854          16.94          7.882           68.5          45.57           97.4          10.01
    0.7705              -27.28          19.52          11.25          38.82          1.851          16.93          7.739          68.45          45.65          97.41          10.03
    0.8013               -27.3           19.5           11.3          38.82          1.848          16.92          7.578          68.41          45.73          97.43          10.04
